<?xml version="1.0" encoding="UTF-8"?>
<svg id="Layer_2" data-name="Layer 2" xmlns="http://www.w3.org/2000/svg" viewBox="0 0 264.67 265.1">
  <defs>
    <style>
      .cls-1 {
        fill: #280c05;
      }

      .cls-1, .cls-2 {
        stroke-width: 0px;
      }

      .cls-2 {
        fill: #3f251f;
      }
    </style>
  </defs>
  <g id="Layer_1-2" data-name="Layer 1">
    <g>
      <path class="cls-1" d="M259.4,51.27c-4.81-25.27-19.97-41.6-45.64-45.39-53.65-7.92-107.52-7.67-161.19-.3C25.33,9.32,8.99,26.17,5.29,53.41c-7.12,52.46-6.95,105.09-.15,157.57,3.63,28.05,20.35,45.12,48.42,48.83,53.08,7.01,106.32,7.16,159.4-.25,14.7-2.05,28.04-7.81,36.08-21.66,12.65-16.02,14.18-34.94,14.15-54.28.65-44.17,4.54-88.48-3.8-132.35ZM236.45,199.52c-1.88,24.42-12.49,35.03-36.91,36.92-44.73,3.46-89.67,3.55-134.39-.06-24.28-1.97-34.71-12.66-36.56-37.27-3.33-44.12-3.23-88.44-.08-132.56,1.81-25.33,12.6-35.92,37.95-37.9,22.28-1.74,44.8-.36,67.21-.36,0,.02,0,.04.01.06,21.8,0,43.71-1.37,65.38.37,24.65,1.98,35.35,12.19,37.32,36.46,3.62,44.7,3.51,89.63.07,134.34Z"/>
      <path class="cls-1" d="M132.24,66.85c-36.44.22-65.68,29.72-65.47,66.04.21,36.33,29.78,65.63,66.08,65.47,36.19-.16,65.69-29.93,65.48-66.08-.21-36.32-29.83-65.65-66.09-65.43ZM133.73,172.08c-22.07.64-40.76-17.6-40.68-39.67.08-21.36,17.83-39.14,39.22-39.29,21.33-.15,39.43,17.47,39.8,38.74.38,21.28-17.1,39.61-38.34,40.22Z"/>
      <path class="cls-2" d="M211.92,66.92c-1.04,7.46-4.94,12.12-12.74,12.21-8.67.11-13.36-4.51-13.15-13.2.19-7.72,4.72-12.37,12.29-12.43,8.43-.07,12.82,5.12,13.6,13.42Z"/>
    </g>
  </g>
</svg>