<svg width="55" height="66" viewBox="0 0 55 66" fill="none" xmlns="http://www.w3.org/2000/svg">
<g clip-path="url(#clip0_12_188)">
<path d="M32.1555 16.8175C31.4553 15.9536 29.8744 15.174 29.8744 13.5816C29.8744 12.1308 31.7588 11.8418 31.7588 10.9719C30.4544 10.6829 30.1659 11.2608 29.1531 10.9719C29.1531 10.9719 28.2544 10.3939 27.7074 10.3939C26.5473 10.3939 25.826 11.4083 25.6788 11.4083C21.4831 11.4083 21.3389 12.8622 21.3389 13.7261C21.3389 14.4757 21.7747 15.466 21.7747 15.466C21.7747 14.7165 23.079 14.0181 23.6561 14.0181C24.2331 14.0181 25.246 14.0181 25.246 14.7405C25.246 16.2968 22.3517 15.7038 22.2105 19.036C22.8777 18.3888 23.7613 17.9704 24.8162 17.9704C25.8711 17.9704 26.8028 18.4009 27.4279 18.9637C27.9779 18.4671 28.8285 17.9704 30.0397 17.9704C31.1126 17.9704 32.0113 18.4039 32.6815 19.0721C32.7867 18.3136 32.6304 17.3955 32.1555 16.8175ZM27.9268 12.9856C27.2747 13.5184 26.7427 13.2927 26.4211 12.781C26.2498 12.507 26.7277 12.4378 27.2416 12.4378C27.437 12.4378 28.6782 12.3686 27.9268 12.9856Z" fill="#3F0B0B"/>
<path d="M33.1473 22.3592C33.1833 23.8282 31.1246 28.5781 30.2169 32.0006H24.6388C23.7281 28.5781 21.6724 23.8282 21.7085 22.3592C21.7085 20.6284 22.9167 18.8434 24.8161 18.8434C26.4842 18.8434 27.2626 20.0444 27.4279 20.3364C27.5902 20.0444 28.3716 18.8434 30.0366 18.8434C31.9391 18.8434 33.1443 20.6314 33.1443 22.3592H33.1473Z" fill="#3F0B0B"/>
<path d="M44.7814 19.8578L47.5945 30.1072L45.3434 29.6768L42.5603 18.9517C42.5183 18.7982 42.38 18.6898 42.2207 18.6898C42.0224 18.6898 41.8691 18.8524 41.8691 19.042C41.8691 19.0691 41.8721 19.0992 41.8811 19.1293L44.58 29.5323L41.3642 28.9152C40.195 21.3749 35.4314 22.3231 34.0068 22.7896C34.0248 22.6331 34.0338 22.4916 34.0308 22.3592C34.0278 21.411 33.7213 20.4297 33.1562 19.638C34.0819 20.0414 37.9289 21.5615 38.4369 19.2708C38.4369 16.2245 35.2541 18.1089 35.2541 13.1813C35.2541 9.49391 38.2956 7.96476 40.0297 7.96476C40.9103 7.96476 45.2382 7.82028 46.9754 16.0801C47.324 17.7356 49.5511 27.3289 50.3625 30.634L48.3609 30.2517L45.4576 19.6681C45.4155 19.5176 45.2773 19.4123 45.121 19.4123C44.8896 19.4123 44.7243 19.632 44.7844 19.8548L44.7814 19.8578Z" fill="#3F0B0B"/>
<path d="M20.8249 22.3592C20.8249 22.4887 20.8309 22.6331 20.8489 22.7897C19.4273 22.3261 14.6607 21.3719 13.4915 28.9153L10.2757 29.5324L12.9746 19.1294C12.9836 19.0993 12.9866 19.0692 12.9866 19.0391C12.9866 18.8524 12.8363 18.6899 12.635 18.6899C12.4757 18.6899 12.3374 18.7982 12.2954 18.9518L9.51229 29.6768L7.25819 30.1073L10.0713 19.8578C10.1314 19.6351 9.96611 19.4153 9.73469 19.4153C9.57841 19.4153 9.44016 19.5207 9.39808 19.6712L6.4948 30.2548L4.49316 30.6371C5.30765 27.332 7.53169 17.7387 7.88032 16.0831C9.61748 7.82333 13.9423 7.96782 14.8229 7.96782C16.5601 7.96782 19.5986 9.49696 19.5986 13.1844C19.5986 18.1119 16.4158 16.2306 16.4158 19.2738C16.9057 21.4712 20.4732 20.2431 21.5852 19.8036C21.0954 20.5652 20.8279 21.4803 20.8249 22.3622V22.3592Z" fill="#3F0B0B"/>
<path d="M40.2251 53.7638C33.8955 59.1911 27.4278 62.6738 27.4278 62.6738C27.4278 62.6738 20.957 59.1881 14.6245 53.7608L27.4248 41.8076L40.2251 53.7638Z" fill="#3F0B0B"/>
<path d="M51.9944 32.0006V37.2262C51.5556 39.6012 50.5818 41.8467 49.3496 43.9087C48.2405 45.6876 46.9662 47.3763 45.5687 48.9777L45.4304 48.8513L27.4998 32.0548L9.56923 48.8483C6.3654 45.2542 3.78972 41.1905 3.0083 36.9252V32.0006H51.9974H51.9944Z" fill="#3F0B0B"/>
<path d="M27.503 3.11548L51.9945 9.68357V36.7928C51.2131 41.0491 48.6344 45.1037 45.4306 48.6828C44.6642 49.5406 43.8618 50.3684 43.0352 51.1721C42.1276 52.0541 41.1959 52.8969 40.2612 53.6976C33.9497 59.1098 27.503 62.5805 27.503 62.5805C27.503 62.5805 21.0503 59.1038 14.7388 53.6946C13.8041 52.8939 12.8724 52.0511 11.9648 51.1691C11.1413 50.3714 10.3388 49.5406 9.5694 48.6797C6.36557 45.0977 3.78989 41.0461 3.00847 36.7928V9.68658L27.503 3.11548ZM27.503 0L26.7246 0.207699L2.22705 6.7788L0 7.37782V37.0727L0.0510929 37.3436C0.850547 41.6932 3.3 46.1844 7.33033 50.6935C8.12377 51.5785 8.97732 52.4695 9.87295 53.3364C10.7746 54.2124 11.7544 55.1064 12.7822 55.9853C19.268 61.542 25.8019 65.0879 26.0784 65.2354L27.503 66.003L28.9276 65.2354C29.2011 65.0879 35.735 61.545 42.2178 55.9883C43.2456 55.1064 44.2254 54.2154 45.1301 53.3364C46.0587 52.4334 46.8913 51.5695 47.6697 50.6965C51.7 46.1964 54.1495 41.7023 54.9519 37.3436L55.003 37.0727V7.37481L52.776 6.77579L28.2784 0.207699L27.5 0H27.503Z" fill="#3F0B0B"/>
</g>
<defs>
<clipPath id="clip0_12_188">
<rect width="55" height="66" fill="white"/>
</clipPath>
</defs>
</svg>
