<?xml version="1.0" encoding="UTF-8"?>
<svg id="Layer_2" data-name="Layer 2" xmlns="http://www.w3.org/2000/svg" viewBox="0 0 174.99 210.57">
  <defs>
    <style>
      .cls-1 {
        fill: #c22432;
      }

      .cls-1, .cls-2, .cls-3 {
        stroke-width: 0px;
      }

      .cls-4 {
        fill: none;
        stroke: #fff;
        stroke-miterlimit: 10;
        stroke-width: 23.98px;
      }

      .cls-3 {
        fill: #fee703;
      }
    </style>
  </defs>
  <g id="Layer_1-2" data-name="Layer 1">
    <g>
      <polygon class="cls-3" points="169 28.19 169 102.16 6 102.16 6 28.19 87.5 6.3 169 28.19"/>
      <g>
        <path class="cls-2" d="M102.86,51.72c-2.33-2.87-7.59-5.46-7.59-10.75,0-4.82,6.27-5.78,6.27-8.67-4.34-.96-5.3.96-8.67,0,0,0-2.99-1.92-4.81-1.92-3.86,0-6.26,3.37-6.75,3.37-13.96,0-14.44,4.83-14.44,7.7,0,2.49,1.45,5.78,1.45,5.78,0-2.49,4.34-4.81,6.26-4.81s5.29,0,5.29,2.4c0,5.17-9.63,3.2-10.1,14.27,2.22-2.15,5.16-3.54,8.67-3.54s6.61,1.43,8.69,3.3c1.83-1.65,4.66-3.3,8.69-3.3,3.57,0,6.56,1.44,8.79,3.66.35-2.52-.17-5.57-1.75-7.49ZM88.79,38.99c-2.17,1.77-3.94,1.02-5.01-.68-.57-.91,1.02-1.14,2.73-1.14.65,0,4.78-.23,2.28,1.82Z"/>
        <g>
          <path class="cls-2" d="M106.16,70.13c.12,4.88-6.73,20.66-9.75,32.03h-18.56c-3.03-11.37-9.87-27.15-9.75-32.03,0-5.75,4.02-11.68,10.34-11.68,5.55,0,8.14,3.99,8.69,4.96.54-.97,3.14-4.96,8.68-4.96,6.33,0,10.34,5.94,10.34,11.68Z"/>
          <g>
            <path class="cls-2" d="M144.87,61.83l9.36,34.05-7.49-1.43-9.26-35.63c-.14-.51-.6-.87-1.13-.87-.66,0-1.17.54-1.17,1.17,0,.09.01.19.04.29l8.98,34.56-10.7-2.05c-3.89-25.05-19.74-21.9-24.48-20.35.06-.52.09-.99.08-1.43-.01-3.15-1.03-6.41-2.91-9.04,3.08,1.34,15.88,6.39,17.57-1.22,0-10.12-10.59-3.86-10.59-20.23,0-12.25,10.12-17.33,15.89-17.33,2.93,0,17.33-.48,23.11,26.96,1.16,5.5,8.57,37.37,11.27,48.35l-6.66-1.27-9.66-35.16c-.14-.5-.6-.85-1.12-.85-.77,0-1.32.73-1.12,1.47Z"/>
            <path class="cls-2" d="M65.16,70.13c0,.43.02.91.08,1.43-4.73-1.54-20.59-4.71-24.48,20.35l-10.7,2.05,8.98-34.56c.03-.1.04-.2.04-.3,0-.62-.5-1.16-1.17-1.16-.53,0-.99.36-1.13.87l-9.26,35.63-7.5,1.43,9.36-34.05c.2-.74-.35-1.47-1.12-1.47-.52,0-.98.35-1.12.85l-9.66,35.16-6.66,1.27c2.71-10.98,10.11-42.85,11.27-48.35,5.78-27.44,20.17-26.96,23.1-26.96,5.78,0,15.89,5.08,15.89,17.33,0,16.37-10.59,10.12-10.59,20.23,1.63,7.3,13.5,3.22,17.2,1.76-1.63,2.53-2.52,5.57-2.53,8.5Z"/>
          </g>
        </g>
      </g>
      <path class="cls-1" d="M169,102.16s0,17.36,0,17.36c-1.45,7.89-4.7,15.35-8.81,22.21-17.03,27.31-45.68,48.08-72.69,63.73-28.16-16.44-58.91-38.44-75.28-68.36-2.87-5.54-5.08-11.43-6.22-17.57,0,0,0-17.36,0-17.36h163Z"/>
      <path class="cls-4" d="M34.27,167.62l52.84-49.28,52.85,49.29"/>
      <path class="cls-2" d="M87.5,6.21l81.5,21.82v90.06c-3.23,17.53-15.62,34.02-29.81,47.77-23.4,22.7-51.69,37.9-51.69,37.9,0,0-28.29-15.21-51.7-37.91-14.18-13.75-26.57-30.25-29.8-47.76V28.03L87.5,6.21M87.5,0l-1.55.42L4.45,22.23l-4.45,1.19v95.21l.1.54c3.04,16.49,13.65,33.64,31.52,50.98,23.74,23.01,51.85,38.25,53.03,38.89l2.84,1.53,2.84-1.53c1.18-.64,29.29-15.86,53.03-38.88,17.88-17.33,28.49-34.49,31.53-50.99l.1-.54V23.42l-4.45-1.19L89.05.42l-1.55-.42h0Z"/>
    </g>
  </g>
</svg>