<svg width="87" height="153" viewBox="0 0 87 153" fill="none" xmlns="http://www.w3.org/2000/svg">
<path d="M40.7889 152.901C40.2915 153.141 39.6937 152.932 39.4535 152.435C39.2134 151.937 39.422 151.34 39.9193 151.099L40.7889 152.901ZM80.6009 45.7547L79.6562 46.0826L80.6009 45.7547ZM0.593506 10.1897C0.0889053 9.96517 -0.138153 9.37412 0.0863495 8.86952L3.7448 0.646643C3.96931 0.142046 4.56036 -0.0850158 5.06496 0.139486C5.56955 0.363987 5.79662 0.955037 5.57211 1.45963L2.32014 8.76886L9.62937 12.0208C10.134 12.2453 10.361 12.8364 10.1365 13.341C9.91203 13.8456 9.32098 14.0726 8.81638 13.8481L0.593506 10.1897ZM39.9193 151.099C41.0991 150.53 42.2512 149.944 43.3762 149.344L44.3184 151.108C43.1692 151.721 41.9928 152.319 40.7889 152.901L39.9193 151.099ZM50.0246 145.417C52.2286 143.981 54.3097 142.479 56.2729 140.918L57.5175 142.484C55.5046 144.084 53.3726 145.623 51.1166 147.093L50.0246 145.417ZM62.0586 135.83C63.9339 134.004 65.676 132.117 67.2915 130.178L68.8283 131.458C67.1684 133.45 65.379 135.388 63.4537 137.263L62.0586 135.83ZM71.8977 124.01C73.3394 121.85 74.6466 119.64 75.8268 117.391L77.5978 118.32C76.3857 120.63 75.0427 122.9 73.5613 125.12L71.8977 124.01ZM79.05 110.396C80.0121 107.994 80.8462 105.562 81.5602 103.11L83.4804 103.669C82.7488 106.182 81.8937 108.676 80.9065 111.14L79.05 110.396ZM83.3686 95.6126C83.8598 93.0714 84.2335 90.5222 84.4985 87.9777L86.4878 88.1849C86.217 90.7851 85.8349 93.3919 85.3323 95.9922L83.3686 95.6126ZM84.9782 80.27C85.0335 77.672 84.9827 75.0927 84.8357 72.5462L86.8324 72.4309C86.9824 75.0285 87.0342 77.6604 86.9778 80.3125L84.9782 80.27ZM84.0928 64.8498C83.7411 62.2528 83.2936 59.7084 82.7618 57.2328L84.7171 56.8127C85.2597 59.3381 85.7161 61.9331 86.0747 64.5814L84.0928 64.8498ZM80.8418 49.7508C80.467 48.502 80.0712 47.2785 79.6562 46.0826L81.5457 45.4269C81.97 46.6498 82.3745 47.9003 82.7574 49.1758L80.8418 49.7508ZM79.6562 46.0826C79.2121 44.8026 78.7323 43.5497 78.2186 42.3243L80.0631 41.5511C80.5931 42.8153 81.0878 44.1075 81.5457 45.4269L79.6562 46.0826ZM74.6421 35.136C73.2762 32.7905 71.773 30.5726 70.1473 28.4874L71.7246 27.2577C73.4056 29.4138 74.9592 31.7064 76.3704 34.1296L74.6421 35.136ZM64.7943 22.5151C62.863 20.6381 60.8159 18.9095 58.6694 17.3355L59.8521 15.7227C62.0727 17.3511 64.1905 19.1392 66.1882 21.0809L64.7943 22.5151ZM51.8886 13.0504C49.5324 11.78 47.0914 10.6736 44.5829 9.73747L45.2821 7.86367C47.8761 8.83167 50.4006 9.97592 52.8378 11.29L51.8886 13.0504ZM36.8917 7.45101C34.2923 6.86702 31.6433 6.45595 28.9613 6.22392L29.1337 4.23137C31.9051 4.47113 34.643 4.89595 37.3301 5.49965L36.8917 7.45101ZM20.937 6.06607C18.2878 6.18967 15.6227 6.4874 12.9568 6.96489L12.6042 4.99622C15.3558 4.50337 18.1076 4.1959 20.8438 4.06825L20.937 6.06607ZM5.15765 8.88364C3.88761 9.2829 2.62071 9.72464 1.35861 10.2095L0.641388 8.34253C1.94212 7.84283 3.24818 7.38742 4.55785 6.9757L5.15765 8.88364Z" fill="#3F0B0B"/>
</svg>
