<svg width="85" height="189" viewBox="0 0 85 189" fill="none" xmlns="http://www.w3.org/2000/svg">
<path d="M38.6572 188.538C38.9545 189.004 39.5729 189.14 40.0383 188.843C40.5037 188.545 40.6399 187.927 40.3426 187.462L38.6572 188.538ZM84.7811 8.1241C85.1258 7.69257 85.0554 7.06333 84.6239 6.71865L77.5917 1.10179C77.1602 0.757114 76.531 0.827519 76.1863 1.25905C75.8416 1.69057 75.912 2.31981 76.3435 2.66449L82.5943 7.65725L77.6016 13.908C77.2569 14.3396 77.3273 14.9688 77.7588 15.3135C78.1903 15.6582 78.8196 15.5878 79.1643 15.1562L84.7811 8.1241ZM40.3426 187.462C39.6722 186.412 38.9797 185.329 38.2682 184.212L36.5813 185.286C37.2938 186.405 37.9873 187.49 38.6572 188.538L40.3426 187.462ZM34.1416 177.66C32.8348 175.553 31.4936 173.355 30.1362 171.069L28.4166 172.09C29.7818 174.389 31.1298 176.599 32.4421 178.714L34.1416 177.66ZM26.2761 164.386C25.0456 162.191 23.8159 159.929 22.6002 157.603L20.8278 158.529C22.0532 160.874 23.2923 163.153 24.5316 165.364L26.2761 164.386ZM19.1406 150.713C18.0424 148.43 16.9676 146.095 15.9269 143.71L14.0938 144.51C15.145 146.919 16.2301 149.276 17.3383 151.58L19.1406 150.713ZM12.989 136.592C12.068 134.223 11.1878 131.811 10.3576 129.359L8.46322 130C9.30337 132.482 10.1938 134.922 11.1249 137.317L12.989 136.592ZM8.06432 122.016C7.36509 119.569 6.72132 117.086 6.14142 114.57L4.19252 115.019C4.7805 117.57 5.43299 120.086 6.14129 122.565L8.06432 122.016ZM4.62092 107.035C4.18777 104.528 3.82277 101.992 3.53362 99.4284L1.54622 99.6525C1.83991 102.257 2.21054 104.832 2.65013 107.376L4.62092 107.035ZM2.90759 91.7783C2.77942 89.244 2.72956 86.6857 2.76502 84.1049L0.765212 84.0774C0.729148 86.7021 0.779868 89.3034 0.91014 91.8793L2.90759 91.7783ZM3.12317 76.4365C3.22475 75.1669 3.34795 73.8923 3.49355 72.6131L1.50638 72.3869C1.35823 73.6885 1.23289 74.9853 1.12954 76.277L3.12317 76.4365ZM3.49355 72.6131C3.64649 71.2694 3.8345 69.9536 4.05597 68.665L2.08487 68.3262C1.8569 69.6526 1.66356 71.006 1.50638 72.3869L3.49355 72.6131ZM5.87196 60.9245C6.65544 58.3227 7.5862 55.8467 8.64727 53.4904L6.82364 52.6692C5.72687 55.1047 4.76555 57.6624 3.9569 60.3479L5.87196 60.9245ZM12.3791 46.4922C13.796 44.2153 15.3445 42.0685 17.0041 40.0447L15.4576 38.7765C13.745 40.865 12.1454 43.0822 10.681 45.4356L12.3791 46.4922ZM22.4112 34.2237C24.3413 32.3809 26.3679 30.6617 28.4683 29.0582L27.2547 27.4685C25.0995 29.1138 23.0165 30.8806 21.0301 32.7772L22.4112 34.2237ZM35.0399 24.5427C37.3189 23.1325 39.6503 21.8359 42.009 20.6444L41.1073 18.8593C38.7009 20.0748 36.3189 21.3994 33.9875 22.842L35.0399 24.5427ZM49.2786 17.3209C51.7883 16.2851 54.2992 15.3564 56.782 14.5249L56.1468 12.6284C53.624 13.4733 51.0703 14.4178 48.5156 15.4722L49.2786 17.3209ZM64.4558 12.2211C67.1466 11.5026 69.7618 10.8943 72.2595 10.3821L71.8577 8.42283C69.3241 8.94246 66.6707 9.5596 63.9398 10.2889L64.4558 12.2211ZM80.1555 9.00154C81.5449 8.80098 82.867 8.63298 84.111 8.4938L83.8886 6.5062C82.6236 6.64774 81.2804 6.81844 79.8698 7.02205L80.1555 9.00154Z" fill="#3F0B0B"/>
</svg>
