<svg viewBox="0 0 1440 31" fill="none" xmlns="http://www.w3.org/2000/svg">
<path fill-rule="evenodd" clip-rule="evenodd" d="M1440 20.4586V31H0V24.7762C34.0302 18.6774 84.9273 13.5 124 13.5C156.023 13.5 189.554 16.3 225.492 19.3011C266.99 22.7665 311.697 26.5 361 26.5C407.189 26.5 459.554 19.9465 511.703 13.4199C563.425 6.94672 614.936 0.5 660 0.5C731.983 0.5 790.615 6.31598 847.587 11.9672C901.42 17.3072 953.77 22.5 1014.5 22.5C1056.55 22.5 1102.94 18.8181 1148.14 15.2307C1191.08 11.8227 1232.95 8.5 1269 8.5C1317.28 8.5 1378.33 14.4595 1420.77 18.6021C1427.73 19.2811 1434.18 19.9114 1440 20.4586Z" fill="#b2d284"/>
</svg>
