<svg viewBox="0 0 1440 46" fill="none" xmlns="http://www.w3.org/2000/svg">
    <path fill-rule="evenodd" clip-rule="evenodd"
          d="M0 22.3503C33.3154 17.126 77.6191 13 112.5 13C144.523 13 178.054 15.8 213.992 18.8011C255.49 22.2666 300.197 26 349.5 26C395.689 26 448.053 19.4464 500.203 12.9198C551.925 6.44666 603.436 0 648.5 0C720.483 0 779.115 5.81592 836.087 11.4672C889.92 16.8071 942.271 22 1003 22C1045.05 22 1091.44 18.3181 1136.64 14.7307C1179.58 11.3228 1221.45 8 1257.5 8C1305.78 8 1366.83 13.9595 1409.27 18.1021C1421.22 19.269 1431.7 20.2917 1440 20.9965V46H0V22.3503Z"
          fill="#FEF4EE"/>
</svg>
