<svg width="1440" height="44" viewBox="0 0 1440 44" fill="none" xmlns="http://www.w3.org/2000/svg">
    <path fill-rule="evenodd" clip-rule="evenodd"
          d="M1440 13.6657V44H0V27.1968C39.2567 19.8096 131.35 13 178.5 13C210.523 13 244.054 15.8001 279.992 18.8012C321.49 22.2666 366.197 26 415.5 26C461.689 26 514.054 19.4465 566.203 12.9199C617.925 6.44668 669.436 0 714.5 0C786.483 0 845.115 5.81598 902.087 11.4672C955.92 16.8072 1008.27 22 1069 22C1111.05 22 1157.44 18.3181 1202.64 14.7307C1245.58 11.3227 1287.45 8 1323.5 8C1355.77 8 1399.36 10.6627 1440 13.6657Z"
          fill="#f9b378"/>
</svg>
